# xmcd
#
# Track frame offsets:
#	150
#	11140
#	21270
#	34464
#	43763
#	55720
#	67338
#	82921
#	96560
#	108481
#	118405
#	128656
#	140967
#	157864
#	169162
#	181958
#	192884
#	205045
#	216940
#	226703
#	239618
#	249847
#	263349
#	274834
#
# Disc length: 3824 seconds
#
# Revision: 1
# Processed by: cddbd v1.5.2PL0 Copyright (c) Steve Scherf et al.
# Submitted via: audiograbber 1.83.01
#
DISCID=5d0eee18
DTITLE=patsy cline - a tribute to patsy cline
DYEAR=1900
DGENRE=
TTITLE0=leavin' on your mind
TTITLE1=tra le la le la triangle
TTITLE2=imagine that
TTITLE3=back in baby's arms
TTITLE4=you're stronger than me
TTITLE5=sweet dreams
TTITLE6=why can't he be you
TTITLE7=so wrong
TTITLE8=when i get thru with you
TTITLE9=lovin' in vain
TTITLE10=who can i count on
TTITLE11=crazy
TTITLE12=faded love
TTITLE13=i'll sail my ship alone
TTITLE14=when you need a laugh
TTITLE15=crazy arms
TTITLE16=always
TTITLE17=when i get thru with you (you'll love me too)
TTITLE18=blue moon of kentucky
TTITLE19=someday you'll want me to want you
TTITLE20=who can i count on
TTITLE21=you took him off my hands
TTITLE22=your kinda love
TTITLE23=does your heart beat for me?
EXTD=
EXTT0=
EXTT1=
EXTT2=
EXTT3=
EXTT4=
EXTT5=
EXTT6=
EXTT7=
EXTT8=
EXTT9=
EXTT10=
EXTT11=
EXTT12=
EXTT13=
EXTT14=
EXTT15=
EXTT16=
EXTT17=
EXTT18=
EXTT19=
EXTT20=
EXTT21=
EXTT22=
EXTT23=
PLAYORDER=
